<?xml version="1.0" encoding="UTF-8"?>
<svg xmlns="http://www.w3.org/2000/svg" viewBox="0 0 32 32">
  <!-- Background -->
  <rect width="32" height="32" rx="4" fill="#10b981"/>
  
  <!-- Kitchen Display Icon -->
  <!-- Screen -->
  <rect x="6" y="8" width="20" height="14" rx="1" fill="#ffffff" stroke="#065f46" stroke-width="0.5"/>
  
  <!-- Screen Content (order cards) -->
  <rect x="8" y="10" width="5" height="3" rx="0.5" fill="#fbbf24"/>
  <rect x="14" y="10" width="5" height="3" rx="0.5" fill="#60a5fa"/>
  <rect x="20" y="10" width="5" height="3" rx="0.5" fill="#34d399"/>
  
  <rect x="8" y="14" width="5" height="3" rx="0.5" fill="#60a5fa"/>
  <rect x="14" y="14" width="5" height="3" rx="0.5" fill="#fbbf24"/>
  <rect x="20" y="14" width="5" height="3" rx="0.5" fill="#60a5fa"/>
  
  <rect x="8" y="18" width="5" height="2" rx="0.5" fill="#34d399"/>
  <rect x="14" y="18" width="5" height="2" rx="0.5" fill="#60a5fa"/>
  <rect x="20" y="18" width="5" height="2" rx="0.5" fill="#fbbf24"/>
  
  <!-- Stand -->
  <rect x="14" y="22" width="4" height="2" fill="#065f46"/>
  <rect x="11" y="24" width="10" height="1" rx="0.5" fill="#065f46"/>
  
  <!-- K letter overlay -->
  <text x="16" y="20" font-family="Arial, sans-serif" font-size="8" font-weight="bold" text-anchor="middle" fill="#ffffff" stroke="#065f46" stroke-width="0.3">K</text>
</svg>